<svg width="127" height="79" viewBox="0 0 127 79" fill="none" xmlns="http://www.w3.org/2000/svg">
<path d="M63.8121 21.6297C65.4787 23.8925 66.7066 26.3252 67.496 28.928C68.294 31.4991 68.6894 34.1392 68.6824 36.8484C68.6956 39.546 68.3178 42.2391 67.5491 44.9278C66.8006 47.6048 65.7175 50.1649 64.2997 52.608C62.9022 55.0396 61.1874 57.2907 59.1552 59.3613C57.1433 61.4203 54.8647 63.1763 52.3193 64.6293C50.6425 65.5864 48.7942 66.3602 46.7743 66.9507C44.7862 67.5499 42.6467 67.7668 40.356 67.6012C38.6647 68.8613 36.982 70.2771 35.3078 71.8488C33.6539 73.4089 32.01 75.1507 30.3761 77.0744C29.0923 70.6024 27.4031 64.335 25.3084 58.2723C23.2223 52.1778 20.5966 46.311 17.4313 40.672C16.9088 41.3988 16.405 42.1819 15.9199 43.0212C15.4232 43.8404 14.9655 44.7043 14.5468 45.6129C14.3278 45.0415 14.09 44.5077 13.8334 44.0113C13.5856 43.4832 13.3175 42.9666 13.0292 42.4616C11.6224 39.997 9.93264 37.8814 7.96 36.1148C5.99603 34.3164 3.75783 32.8353 1.24538 31.6714C1.85446 31.0023 2.61649 30.2727 3.53145 29.4826C4.44642 28.6925 5.43352 27.888 6.49276 27.0691C7.5722 26.2386 8.68337 25.4169 9.82628 24.6038C10.9894 23.7792 12.1236 22.9978 13.229 22.2597C14.3343 21.5216 15.3805 20.8441 16.3675 20.2271C17.3546 19.6102 18.2117 19.0941 18.939 18.679C21.9288 16.9724 24.891 15.6163 27.8257 14.6107C30.7489 13.5849 33.581 12.8924 36.3221 12.533C39.0516 12.1534 41.6483 12.1041 44.1121 12.3851C46.5846 12.6344 48.8651 13.1808 50.9535 14.0242C53.0305 14.8474 54.8938 15.9533 56.5435 17.3419C58.1931 18.7304 59.5599 20.3741 60.6439 22.2731C60.8169 22.5761 60.9956 22.8892 61.1801 23.2124C61.3531 23.5155 61.5058 23.83 61.6384 24.1561C62.0512 23.7062 62.4394 23.2837 62.8031 22.8886C63.1553 22.4733 63.4916 22.0537 63.8121 21.6297ZM51.3823 32.0192C50.272 30.9656 49.0707 30.1514 47.7784 29.5767C46.5063 28.9904 45.1923 28.5888 43.8364 28.3717C42.5006 28.1432 41.1533 28.082 39.7943 28.1881C38.4556 28.2827 37.1427 28.4696 35.8558 28.7489C34.5891 29.0166 33.3844 29.3695 32.2416 29.8075C31.0874 30.2253 30.0327 30.6533 29.0775 31.0914C31.7814 36.1099 34.5287 41.0636 37.3193 45.9524C39.8792 50.4371 42.4882 54.8671 45.1463 59.2422C46.7917 57.5263 48.1789 55.6631 49.3079 53.6527C50.4571 51.6307 51.2169 49.5365 51.5872 47.3699C51.9662 45.1715 51.9052 42.9297 51.4043 40.6444C50.9033 38.3591 49.857 36.1039 48.2654 33.8787C48.7301 33.6135 49.225 33.331 49.7503 33.0311C50.2755 32.7313 50.8195 32.394 51.3823 32.0192Z" fill="#F4F4F4"/>
<path d="M107.195 13.2009C105.675 17.577 104.215 21.9863 102.814 26.4288C101.432 30.8598 100.139 35.3745 98.9339 39.9729C103.033 41.1952 107.137 42.3079 111.245 43.311C115.373 44.3025 119.543 45.2031 123.755 46.0129C120.503 47.8695 117.651 49.8185 115.201 51.8601C112.771 53.8901 110.572 56.0689 108.607 58.3963C106.466 57.3682 104.329 56.392 102.194 55.4677C100.068 54.5118 97.9466 53.6337 95.8293 52.8335C95.3002 55.1443 94.8087 57.4738 94.3546 59.8222C93.9208 62.159 93.4883 64.5217 93.0573 66.9104C91.5106 67.5791 90.0893 68.2564 88.7935 68.9425C87.518 69.617 86.2843 70.2945 85.0924 70.9748C83.5773 71.8397 82.0001 72.8069 80.3608 73.8766C78.7215 74.9462 77.036 76.1226 75.3043 77.4057C76.9771 72.594 78.543 67.8298 80.0022 63.1133C81.4499 58.3765 82.7447 53.6064 83.8866 48.8032C79.4584 47.4739 75.036 46.3423 70.6192 45.4084C66.1909 44.4542 61.7381 43.6212 57.2606 42.9094C60.2966 41.096 63.1784 39.1297 65.9059 37.0103C68.6535 34.8795 71.1907 32.5206 73.5173 29.9337C75.6721 31.0339 77.834 32.0765 80.0032 33.0613C82.1609 34.026 84.346 34.9214 86.5585 35.7476C86.9547 33.6733 87.3048 31.612 87.6087 29.5637C87.9011 27.4951 88.1401 25.4035 88.3257 23.2888C90.2879 22.5972 92.1593 21.8638 93.9398 21.0885C95.7088 20.2931 97.3811 19.4456 98.9569 18.5461C100.23 17.8197 101.53 17.024 102.857 16.159C104.205 15.2826 105.651 14.2965 107.195 13.2009Z" fill="#F4F4F4"/>
</svg>
