<svg width="36" height="36" viewBox="0 0 36 36" fill="none" xmlns="http://www.w3.org/2000/svg">
<path d="M31.2 18C31.2 25.2902 25.2901 31.2 18 31.2C10.7098 31.2 4.79999 25.2902 4.79999 18C4.79999 10.7099 10.7098 4.80005 18 4.80005C25.2901 4.80005 31.2 10.7099 31.2 18Z" fill="#F4F4F4"/>
<path fill-rule="evenodd" clip-rule="evenodd" d="M10.5258 18.3408C10.4934 18.3408 10.881 19.161 10.8918 19.161C11.7378 20.6706 13.3686 21.609 16.1196 21.8694C15.7272 22.1622 15.2556 22.7178 15.1902 23.3598C14.6964 23.6736 13.7034 23.7774 12.9318 23.538C11.85 23.2026 11.436 21.0984 9.8166 21.3984C9.4662 21.4626 9.5358 21.69 9.8388 21.8838C10.3326 22.1976 10.797 22.5906 11.1552 23.4264C11.4306 24.0684 12.009 25.215 13.839 25.215C14.565 25.215 15.0738 25.1292 15.0738 25.1292C15.0738 25.1292 15.0876 26.7678 15.0876 27.405C15.0876 28.14 14.0784 28.347 14.0784 28.7004C14.0784 28.8402 14.4126 28.8534 14.6808 28.8534C15.2112 28.8534 16.3146 28.4184 16.3146 27.6546C16.3146 27.048 16.3248 25.0086 16.3248 24.651C16.3248 23.871 16.7502 23.6238 16.7502 23.6238C16.7502 23.6238 16.803 27.7878 16.6488 28.347C16.4676 29.0034 16.1406 28.9104 16.1406 29.2032C16.1406 29.6388 17.469 29.3106 17.9094 28.3536C18.2496 27.6102 18.1008 23.5236 18.1008 23.5236L18.4638 23.5164C18.4638 23.5164 18.4842 25.3866 18.4716 26.2416C18.459 27.1272 18.3978 28.2468 18.933 28.7748C19.2846 29.1222 20.4234 29.7312 20.4234 29.1744C20.4234 28.851 19.7994 28.5852 19.7994 27.7098V23.6808C20.298 23.6808 20.223 25.0056 20.223 25.0056L20.2596 27.4674C20.2596 27.4674 20.1492 28.3638 21.2466 28.7388C21.6336 28.8726 22.4616 28.9086 22.5006 28.6848C22.5396 28.461 21.5034 28.128 21.4938 27.4344C21.4878 27.0102 21.513 26.763 21.513 24.9222C21.513 23.0814 21.2616 22.401 20.385 21.8586C23.0898 21.5856 24.7644 20.928 25.5798 19.167C25.6434 19.1688 25.9128 18.3444 25.8774 18.3444C26.0604 17.6796 26.1594 16.893 26.1786 15.9618C26.1738 13.4358 24.9438 12.5424 24.708 12.123C25.056 10.2108 24.6492 9.3408 24.4608 9.042C23.7636 8.7984 22.0362 9.669 21.0918 10.2822C19.5534 9.84 16.3002 9.8826 15.0804 10.3962C12.8298 8.8128 11.6388 9.0552 11.6388 9.0552C11.6388 9.0552 10.869 10.4106 11.4354 12.3942C10.695 13.3218 10.143 13.9782 10.143 15.7176C10.1436 16.698 10.2612 17.5752 10.5258 18.3408ZM18 36C8.0592 36 0 27.9408 0 18C0 8.0586 8.0592 0 18 0C27.9408 0 36 8.0586 36 18C36 27.9408 27.9408 36 18 36Z" fill="#010101"/>
</svg>
