<svg width="36" height="37" viewBox="0 0 36 37" fill="none" xmlns="http://www.w3.org/2000/svg">
<g clip-path="url(#clip0)">
<circle cx="18.2687" cy="18.9717" r="12.3582" fill="#F4F4F4"/>
<path fill-rule="evenodd" clip-rule="evenodd" d="M28.1022 27.1853V20.1581C28.1022 16.3931 26.0922 14.6411 23.4126 14.6411C21.2502 14.6411 20.2812 15.8309 19.7412 16.6655V14.9291H15.6672C15.7212 16.0793 15.6672 27.1853 15.6672 27.1853H19.7412V20.3405C19.7412 19.9751 19.7676 19.6091 19.8756 19.3475C20.1696 18.6155 20.8398 17.8577 21.9648 17.8577C23.4396 17.8577 24.0288 18.9815 24.0288 20.6285V27.1859H28.1022V27.1853ZM11.3754 13.2563C12.7956 13.2563 13.6806 12.3143 13.6806 11.1377C13.6542 9.93593 12.7956 9.02093 11.4024 9.02093C10.0092 9.02093 9.0978 9.93533 9.0978 11.1377C9.0978 12.3143 9.9822 13.2563 11.3496 13.2563H11.3754ZM18 36.7031C8.0592 36.7031 0 28.6439 0 18.7031C0 8.76173 8.0592 0.703125 18 0.703125C27.9408 0.703125 36 8.76173 36 18.7031C36 28.6439 27.9408 36.7031 18 36.7031ZM13.4124 27.1853V14.9291H9.339V27.1853H13.4124Z" fill="#007AB9"/>
</g>
<defs>
<clipPath id="clip0">
<rect y="0.703125" width="36" height="36" fill="white"/>
</clipPath>
</defs>
</svg>
