<svg width="95" height="95" viewBox="0 0 95 95" fill="none" xmlns="http://www.w3.org/2000/svg">
<rect width="95" height="95" rx="47.5" fill="#66A060"/>
<path d="M63.3327 43.2135C63.3327 43.2135 62.7235 37.9773 57.1224 37.9773C51.5207 37.9773 47.6855 38.7076 47.6855 41.8131C47.6855 44.9185 58.5842 44.9185 62.7246 46.136C66.865 47.3534 70.5178 50.5197 68.6911 56.1213C66.8645 61.723 61.2628 62.3317 52.6171 62.3317C43.9713 62.3317 42.0225 55.1466 42.0225 52.3463H46.8932C46.8932 52.3463 46.284 56.73 52.0073 57.4604C57.7305 58.1907 63.203 58.6019 63.9409 54.173C64.9151 48.3275 45.4315 51.2505 43.7264 45.5273C42.2862 40.6915 43.1172 34.3245 52.8592 33.3498C62.6013 32.3751 67.9592 36.6765 67.9592 43.0919L63.3327 43.2135Z" fill="white"/>
<path d="M16.2796 66.041L27.048 72.2578C32.4586 75.3816 39.2217 71.4769 39.2217 65.2294V54.335V34.2852H34.8326V64.0087C34.8326 67.4204 31.1395 69.5533 28.1842 67.8467L20.6681 63.5077V31.7858L48.1398 15.9264L75.6115 31.7858V63.5077L48.1398 79.367L40.226 74.7981L35.0581 76.8821L48.1393 84.4347L80 66.0394V29.2524L48.1398 10.8582L16.2791 29.2535V66.041H16.2796Z" fill="white"/>
</svg>
