<svg width="95" height="95" viewBox="0 0 95 95" fill="none" xmlns="http://www.w3.org/2000/svg">
<rect width="95" height="95" fill="#61DAFB"/>
<path d="M87.083 47.858C87.083 42.641 80.5238 37.6969 70.4675 34.6309C72.7882 24.4216 71.7567 16.2992 67.212 13.6987C66.1645 13.0887 64.9397 12.7997 63.6021 12.7997V16.3794C64.3434 16.3794 64.9397 16.5239 65.4393 16.7968C67.6311 18.0489 68.5819 22.8164 67.8406 28.9484C67.6633 30.4573 67.3732 32.0465 67.0187 33.6678C63.8599 32.8973 60.4111 32.3033 56.785 31.9181C54.6094 28.9484 52.3532 26.2516 50.0808 23.8919C55.3346 19.028 60.2661 16.3634 63.6182 16.3634V12.7837C59.1863 12.7837 53.3846 15.9299 47.5184 21.3877C41.6522 15.9621 35.8505 12.8479 31.4186 12.8479V16.4276C34.7546 16.4276 39.7022 19.0762 44.956 23.908C42.6997 26.2676 40.4435 28.9484 38.3001 31.9181C34.6579 32.3033 31.2091 32.8973 28.0504 33.6838C27.6797 32.0786 27.4057 30.5215 27.2124 29.0286C26.4549 22.8967 27.3896 18.1291 29.5653 16.861C30.0488 16.572 30.6773 16.4436 31.4186 16.4436V12.864C30.0649 12.864 28.8401 13.1529 27.7764 13.7629C23.2478 16.3634 22.2325 24.4698 24.5693 34.647C14.5453 37.729 8.01831 42.6571 8.01831 47.858C8.01831 53.075 14.5775 58.0192 24.6338 61.0852C22.3131 71.2944 23.3445 79.4169 27.8892 82.0174C28.9368 82.6274 30.1616 82.9163 31.5153 82.9163C35.9472 82.9163 41.7489 79.7701 47.6151 74.3123C53.4813 79.738 59.283 82.8521 63.7149 82.8521C65.0686 82.8521 66.2934 82.5632 67.3571 81.9532C71.8857 79.3527 72.901 71.2463 70.5642 61.0691C80.556 58.0031 87.083 53.059 87.083 47.858ZM66.1 37.1511C65.5038 39.2219 64.7624 41.3568 63.9244 43.4918C63.2636 42.2076 62.5707 40.9234 61.8132 39.6392C61.0719 38.3551 60.2822 37.103 59.4925 35.883C61.781 36.2201 63.9889 36.6375 66.1 37.1511ZM58.719 54.2469C57.4619 56.4139 56.1726 58.4686 54.835 60.3788C52.4338 60.5875 50.0003 60.6999 47.5506 60.6999C45.1171 60.6999 42.6836 60.5875 40.2985 60.3949C38.9609 58.4847 37.6555 56.446 36.3984 54.295C35.1736 52.1922 34.0616 50.0572 33.0463 47.9062C34.0455 45.7552 35.1736 43.6042 36.3823 41.5013C37.6394 39.3342 38.9286 37.2795 40.2662 35.3693C42.6675 35.1606 45.101 35.0483 47.5506 35.0483C49.9841 35.0483 52.4176 35.1606 54.8028 35.3533C56.1404 37.2635 57.4458 39.3021 58.7028 41.4532C59.9277 43.556 61.0397 45.691 62.055 47.842C61.0397 49.993 59.9277 52.144 58.719 54.2469ZM63.9244 52.1601C64.7947 54.3111 65.536 56.4621 66.1484 58.5489C64.0372 59.0626 61.8132 59.496 59.5086 59.8331C60.2983 58.597 61.088 57.3289 61.8293 56.0287C62.5707 54.7445 63.2636 53.4442 63.9244 52.1601ZM47.5829 69.2879C46.0841 67.7469 44.5853 66.0293 43.1026 64.1511C44.5531 64.2154 46.0357 64.2635 47.5345 64.2635C49.0494 64.2635 50.5482 64.2314 52.0147 64.1511C50.5643 66.0293 49.0655 67.7469 47.5829 69.2879ZM35.5926 59.8331C33.3042 59.496 31.0963 59.0786 28.9851 58.5649C29.5814 56.4942 30.3227 54.3592 31.1608 52.2243C31.8215 53.5085 32.5145 54.7926 33.2719 56.0768C34.0294 57.361 34.803 58.6131 35.5926 59.8331ZM47.5023 26.4282C49.0011 27.9692 50.4998 29.6868 51.9825 31.5649C50.5321 31.5007 49.0494 31.4526 47.5506 31.4526C46.0357 31.4526 44.537 31.4847 43.0704 31.5649C44.5208 29.6868 46.0196 27.9692 47.5023 26.4282ZM35.5765 35.883C34.7868 37.119 33.9972 38.3872 33.2558 39.6874C32.5145 40.9716 31.8215 42.2558 31.1608 43.54C30.2905 41.3889 29.5492 39.2379 28.9368 37.1511C31.0479 36.6535 33.2719 36.2201 35.5765 35.883ZM20.9916 55.9805C15.2866 53.5566 11.596 50.3782 11.596 47.858C11.596 45.3378 15.2866 42.1434 20.9916 39.7356C22.3776 39.1416 23.8925 38.6119 25.4557 38.1143C26.3743 41.2605 27.583 44.5352 29.0818 47.8901C27.5991 51.229 26.4066 54.4876 25.5041 57.6178C23.9086 57.1202 22.3937 56.5744 20.9916 55.9805ZM29.662 78.9193C27.4702 77.6672 26.5194 72.8997 27.2607 66.7677C27.438 65.2588 27.7281 63.6696 28.0826 62.0483C31.2413 62.8188 34.6901 63.4127 38.3162 63.798C40.4919 66.7677 42.7481 69.4645 45.0204 71.8242C39.7667 76.688 34.8352 79.3527 31.4831 79.3527C30.7579 79.3367 30.1455 79.1922 29.662 78.9193ZM67.8889 66.6874C68.6464 72.8194 67.7116 77.5869 65.536 78.8551C65.0525 79.144 64.424 79.2724 63.6827 79.2724C60.3467 79.2724 55.3991 76.6238 50.1453 71.7921C52.4015 69.4324 54.6578 66.7516 56.8012 63.7819C60.4434 63.3967 63.8922 62.8028 67.0509 62.0162C67.4216 63.6375 67.7116 65.1945 67.8889 66.6874ZM74.0935 55.9805C72.7076 56.5744 71.1927 57.1042 69.6294 57.6018C68.7108 54.4555 67.5021 51.1809 66.0034 47.8259C67.486 44.487 68.6786 41.2284 69.5811 38.0982C71.1766 38.5958 72.6915 39.1416 74.1097 39.7356C79.8147 42.1595 83.5052 45.3378 83.5052 47.858C83.4891 50.3782 79.7986 53.5727 74.0935 55.9805Z" fill="#F4F4F4"/>
<path d="M47.5344 55.194C51.602 55.194 54.8994 51.9096 54.8994 47.8581C54.8994 43.8066 51.602 40.5222 47.5344 40.5222C43.4668 40.5222 40.1694 43.8066 40.1694 47.8581C40.1694 51.9096 43.4668 55.194 47.5344 55.194Z" fill="#F4F4F4"/>
</svg>
