<svg width="95" height="95" viewBox="0 0 95 95" fill="none" xmlns="http://www.w3.org/2000/svg">
<rect width="95" height="95" rx="47.5" fill="#6B57E6"/>
<path d="M87.0831 47.858C87.0831 42.641 80.5239 37.6969 70.4676 34.6309C72.7883 24.4216 71.7569 16.2992 67.2122 13.6987C66.1646 13.0887 64.9398 12.7997 63.6022 12.7997V16.3794C64.3435 16.3794 64.9398 16.5239 65.4394 16.7968C67.6312 18.0489 68.582 22.8164 67.8407 28.9484C67.6634 30.4573 67.3733 32.0465 67.0188 33.6678C63.8601 32.8973 60.4113 32.3033 56.7852 31.9181C54.6095 28.9484 52.3533 26.2516 50.081 23.8919C55.3347 19.028 60.2662 16.3634 63.6183 16.3634V12.7837C59.1864 12.7837 53.3847 15.9299 47.5185 21.3877C41.6523 15.9621 35.8506 12.8479 31.4187 12.8479V16.4276C34.7547 16.4276 39.7023 19.0762 44.9561 23.908C42.6999 26.2676 40.4436 28.9484 38.3002 31.9181C34.658 32.3033 31.2092 32.8973 28.0505 33.6838C27.6798 32.0786 27.4059 30.5215 27.2125 29.0286C26.455 22.8967 27.3898 18.1291 29.5654 16.861C30.0489 16.572 30.6774 16.4436 31.4187 16.4436V12.864C30.065 12.864 28.8402 13.1529 27.7765 13.7629C23.248 16.3634 22.2327 24.4698 24.5695 34.647C14.5454 37.729 8.01843 42.6571 8.01843 47.858C8.01843 53.075 14.5776 58.0192 24.6339 61.0852C22.3132 71.2944 23.3447 79.4169 27.8893 82.0174C28.9369 82.6274 30.1617 82.9163 31.5154 82.9163C35.9473 82.9163 41.749 79.7701 47.6152 74.3123C53.4814 79.738 59.2831 82.8521 63.715 82.8521C65.0687 82.8521 66.2936 82.5632 67.3572 81.9532C71.8858 79.3527 72.9011 71.2463 70.5643 61.0691C80.5561 58.0031 87.0831 53.059 87.0831 47.858ZM66.1002 37.1511C65.5039 39.2219 64.7625 41.3568 63.9245 43.4918C63.2638 42.2076 62.5708 40.9234 61.8133 39.6392C61.072 38.3551 60.2823 37.103 59.4927 35.883C61.7811 36.2201 63.989 36.6375 66.1002 37.1511ZM58.7191 54.2469C57.462 56.4139 56.1728 58.4686 54.8352 60.3788C52.4339 60.5875 50.0004 60.6999 47.5508 60.6999C45.1173 60.6999 42.6838 60.5875 40.2986 60.3949C38.961 58.4847 37.6556 56.446 36.3985 54.295C35.1737 52.1922 34.0617 50.0572 33.0464 47.9062C34.0456 45.7552 35.1737 43.6042 36.3824 41.5013C37.6395 39.3342 38.9287 37.2795 40.2664 35.3693C42.6676 35.1606 45.1011 35.0483 47.5508 35.0483C49.9843 35.0483 52.4178 35.1606 54.8029 35.3533C56.1405 37.2635 57.4459 39.3021 58.703 41.4532C59.9278 43.556 61.0398 45.691 62.0551 47.842C61.0398 49.993 59.9278 52.144 58.7191 54.2469ZM63.9245 52.1601C64.7948 54.3111 65.5361 56.4621 66.1485 58.5489C64.0373 59.0626 61.8133 59.496 59.5088 59.8331C60.2984 58.597 61.0881 57.3289 61.8295 56.0287C62.5708 54.7445 63.2638 53.4442 63.9245 52.1601ZM47.583 69.2879C46.0842 67.7469 44.5854 66.0293 43.1028 64.1511C44.5532 64.2154 46.0359 64.2635 47.5346 64.2635C49.0495 64.2635 50.5483 64.2314 52.0149 64.1511C50.5644 66.0293 49.0657 67.7469 47.583 69.2879ZM35.5928 59.8331C33.3043 59.496 31.0964 59.0786 28.9852 58.5649C29.5815 56.4942 30.3229 54.3592 31.1609 52.2243C31.8216 53.5085 32.5146 54.7926 33.2721 56.0768C34.0295 57.361 34.8031 58.6131 35.5928 59.8331ZM47.5024 26.4282C49.0012 27.9692 50.5 29.6868 51.9826 31.5649C50.5322 31.5007 49.0495 31.4526 47.5508 31.4526C46.0359 31.4526 44.5371 31.4847 43.0705 31.5649C44.521 29.6868 46.0198 27.9692 47.5024 26.4282ZM35.5766 35.883C34.787 37.119 33.9973 38.3872 33.2559 39.6874C32.5146 40.9716 31.8216 42.2558 31.1609 43.54C30.2906 41.3889 29.5493 39.2379 28.9369 37.1511C31.0481 36.6535 33.2721 36.2201 35.5766 35.883ZM20.9917 55.9805C15.2867 53.5566 11.5962 50.3782 11.5962 47.858C11.5962 45.3378 15.2867 42.1434 20.9917 39.7356C22.3777 39.1416 23.8926 38.6119 25.4558 38.1143C26.3745 41.2605 27.5831 44.5352 29.0819 47.8901C27.5993 51.229 26.4067 54.4876 25.5042 57.6178C23.9087 57.1202 22.3938 56.5744 20.9917 55.9805ZM29.6621 78.9193C27.4703 77.6672 26.5195 72.8997 27.2608 66.7677C27.4381 65.2588 27.7282 63.6696 28.0827 62.0483C31.2415 62.8188 34.6903 63.4127 38.3163 63.798C40.492 66.7677 42.7482 69.4645 45.0206 71.8242C39.7668 76.688 34.8353 79.3527 31.4832 79.3527C30.758 79.3367 30.1456 79.1922 29.6621 78.9193ZM67.889 66.6874C68.6465 72.8194 67.7118 77.5869 65.5361 78.8551C65.0526 79.144 64.4241 79.2724 63.6828 79.2724C60.3468 79.2724 55.3992 76.6238 50.1454 71.7921C52.4017 69.4324 54.6579 66.7516 56.8013 63.7819C60.4435 63.3967 63.8923 62.8028 67.051 62.0162C67.4217 63.6375 67.7118 65.1945 67.889 66.6874ZM74.0937 55.9805C72.7077 56.5744 71.1928 57.1042 69.6296 57.6018C68.7109 54.4555 67.5023 51.1809 66.0035 47.8259C67.4861 44.487 68.6787 41.2284 69.5812 38.0982C71.1767 38.5958 72.6916 39.1416 74.1098 39.7356C79.8148 42.1595 83.5053 45.3378 83.5053 47.858C83.4892 50.3782 79.7987 53.5727 74.0937 55.9805Z" fill="#F4F4F4"/>
<path d="M47.5346 55.194C51.6022 55.194 54.8996 51.9096 54.8996 47.8581C54.8996 43.8066 51.6022 40.5222 47.5346 40.5222C43.4671 40.5222 40.1696 43.8066 40.1696 47.8581C40.1696 51.9096 43.4671 55.194 47.5346 55.194Z" fill="#F4F4F4"/>
</svg>
